# xmcd
#
# Track frame offsets:
#	150
#	16055
#	34577
#	47160
#	60485
#	69507
#	79022
#	87172
#	112057
#	124707
#	140595
#	146920
#	158445
#	184922
#	213275
#	220725
#	234450
#
# Disc length: 3253 seconds
#
# Revision: 1
# Processed by: cddbd v1.5.1PL0 Copyright (c) Steve Scherf et al.
# Submitted via: CDex 1.50Beta5
#
DISCID=e80cb311
DTITLE=その他 - BGM
DYEAR=1900
DGENRE=Classical
TTITLE0=エリーゼのために
TTITLE1=乙女の祈り
TTITLE2=トルコマーチ
TTITLE3=ユーモレスク
TTITLE4=子犬のワルツ
TTITLE5=カッコーワルツ
TTITLE6=メヌエット
TTITLE7=幻想即興曲
TTITLE8=トロイメライ
TTITLE9=協奏曲集「四季」より春
TTITLE10=白鳥の踊り「白鳥の湖」より
TTITLE11=情景「白鳥の湖」より
TTITLE12=アイネ・クライネ・ナハトムジーク
TTITLE13=カノン
TTITLE14=ロンド
TTITLE15=ポロネーズ
TTITLE16=スワニルダのワルツ
EXTD=
EXTT0=
EXTT1=
EXTT2=
EXTT3=
EXTT4=
EXTT5=
EXTT6=
EXTT7=
EXTT8=
EXTT9=
EXTT10=
EXTT11=
EXTT12=
EXTT13=
EXTT14=
EXTT15=
EXTT16=
PLAYORDER=
